<svg width="33" height="38" viewBox="0 0 33 38" fill="currentColor" xmlns="http://www.w3.org/2000/svg">
<path d="M0.883929 14.25H32.1161C32.6022 14.25 33 14.6508 33 15.1406V34.4375C33 36.4043 31.4163 38 29.4643 38H3.53571C1.58371 38 0 36.4043 0 34.4375V15.1406C0 14.6508 0.397768 14.25 0.883929 14.25ZM33 10.9844V8.3125C33 6.3457 31.4163 4.75 29.4643 4.75H25.9286V0.890625C25.9286 0.400781 25.5308 0 25.0446 0H22.0982C21.6121 0 21.2143 0.400781 21.2143 0.890625V4.75H11.7857V0.890625C11.7857 0.400781 11.3879 0 10.9018 0H7.95536C7.4692 0 7.07143 0.400781 7.07143 0.890625V4.75H3.53571C1.58371 4.75 0 6.3457 0 8.3125V10.9844C0 11.4742 0.397768 11.875 0.883929 11.875H32.1161C32.6022 11.875 33 11.4742 33 10.9844Z" fill="currentColor"/>
</svg>
