<?xml version="1.0" encoding="UTF-8"?><svg xmlns="http://www.w3.org/2000/svg" viewBox="0 0 24 24" fill="currentColor"><g id="a"/><g id="b"/><g id="c"/><g id="d"/><g id="e"/><g id="f"/><g id="g"/><g id="h"/><g id="i"/><g id="j"/><g id="k"/><g id="l"/><g id="m"/><g id="n"/><g id="o"/><g id="p"><g><path d="M16.68,2.67l-1.78,2.39c-.33,.44-.85,.7-1.4,.7h-3c-.55,0-1.07-.26-1.4-.7l-1.18-1.56s-.04-.06-.06-.1l-.43-.79c-1.28,.6-2.18,1.89-2.18,3.4v12c0,2.07,1.68,3.75,3.75,3.75h6c2.07,0,3.75-1.68,3.75-3.75V6c0-1.46-.85-2.72-2.07-3.33Zm-3.68,16.08h-2c-.41,0-.75-.34-.75-.75s.34-.75,.75-.75h2c.41,0,.75,.34,.75,.75s-.34,.75-.75,.75Z"/><path d="M10.3,4.15c.05,.06,.12,.1,.2,.1h3c.08,0,.15-.04,.2-.1l1.41-1.89s-.07-.01-.11-.01h-6s-.03,0-.05,0l.21,.38,1.15,1.52Z"/></g></g><g id="q"/><g id="r"/><g id="s"/><g id="t"/><g id="u"/></svg>