<?xml version="1.0" encoding="UTF-8"?><svg xmlns="http://www.w3.org/2000/svg" viewBox="0 0 24 24" fill="currentColor"><g id="a"/><g id="b"/><g id="c"/><g id="d"><g><path d="M8.3,4.15c.05,.06,.12,.1,.2,.1h3c.08,0,.15-.04,.2-.1l1.42-1.89s-.08-.01-.12-.01H7s-.04,0-.06,0l.21,.38,1.15,1.52Z"/><path d="M14.03,17.79c-.45,.3-.98,.46-1.52,.46-.45,0-.9-.11-1.3-.32-.9-.48-1.46-1.41-1.46-2.43v-5.07c0-1.79,1.46-3.25,3.25-3.25h3.75v-1.18c0-1.46-.84-2.71-2.06-3.33l-1.79,2.38c-.33,.44-.85,.7-1.4,.7h-3c-.55,0-1.07-.26-1.4-.7l-1.18-1.56s-.04-.06-.06-.09l-.44-.8c-1.28,.6-2.17,1.89-2.17,3.39v12c0,2.07,1.68,3.75,3.75,3.75h6c2.07,0,3.75-1.68,3.75-3.75v-1.32h-1.07l-1.66,1.1Zm-3.03,2.96h-2c-.41,0-.75-.34-.75-.75s.34-.75,.75-.75h2c.41,0,.75,.34,.75,.75s-.34,.75-.75,.75Z"/><path d="M19,8.68h-6c-.96,0-1.75,.79-1.75,1.75v5.07c0,.46,.25,.88,.66,1.1,.19,.1,.39,.15,.59,.15,.24,0,.48-.07,.69-.21l1.72-1.15c.21-.14,.45-.21,.69-.21h3.39c.96,0,1.75-.79,1.75-1.75v-3c0-.96-.79-1.75-1.75-1.75Z"/></g></g><g id="e"/><g id="f"/><g id="g"/><g id="h"/><g id="i"/><g id="j"/><g id="k"/><g id="l"/><g id="m"/><g id="n"/><g id="o"/><g id="p"/><g id="q"/><g id="r"/><g id="s"/><g id="t"/><g id="u"/></svg>