<?xml version="1.0" encoding="UTF-8"?><svg xmlns="http://www.w3.org/2000/svg" viewBox="0 0 24 24" fill="currentColor"><defs><style>.v{fill:currentColor;}</style></defs><g id="a"/><g id="b"/><g id="c"/><g id="d"/><g id="e"/><g id="f"/><g id="g"/><g id="h"/><g id="i"/><g id="j"/><g id="k"/><g id="l"/><g id="m"/><g id="n"/><g id="o"/><g id="p"/><g id="q"/><g id="r"/><g id="s"/><g id="t"/><g id="u"><path class="v" d="M18,3.25H6c-2.07,0-3.75,1.68-3.75,3.75v6c0,2.07,1.68,3.75,3.75,3.75h1.5c.7,0,1.38,.34,1.8,.9l1.3,1.73c.33,.45,.84,.7,1.4,.7s1.07-.26,1.4-.7l1.3-1.73c.42-.56,1.1-.9,1.8-.9h1.5c2.07,0,3.75-1.68,3.75-3.75V7c0-2.07-1.68-3.75-3.75-3.75Zm-6.54,9.17H7.46c-.41,0-.75-.34-.75-.75s.34-.75,.75-.75h4c.41,0,.75,.34,.75,.75s-.34,.75-.75,.75Zm5.08-4H7.46c-.41,0-.75-.34-.75-.75s.34-.75,.75-.75h9.08c.41,0,.75,.34,.75,.75s-.34,.75-.75,.75Z"/></g></svg>