<?xml version="1.0" encoding="UTF-8"?><svg xmlns="http://www.w3.org/2000/svg" viewBox="0 0 24 24" fill="currentColor"><g id="a"/><g id="b"/><g id="c"/><g id="d"/><g id="e"/><g id="f"><g><circle cx="10" cy="7" r="4.75"/><path d="M17,11.25c-2.62,0-4.75,2.13-4.75,4.75s2.13,4.75,4.75,4.75,4.75-2.13,4.75-4.75-2.13-4.75-4.75-4.75Zm2,5.5h-1.25v1.25c0,.41-.34,.75-.75,.75s-.75-.34-.75-.75v-1.25h-1.25c-.41,0-.75-.34-.75-.75s.34-.75,.75-.75h1.25v-1.25c0-.41,.34-.75,.75-.75s.75,.34,.75,.75v1.25h1.25c.41,0,.75,.34,.75,.75s-.34,.75-.75,.75Z"/><path d="M11.4,13.25h-3.3c-2.73,0-5.1,1.94-5.64,4.62l-.2,.98c-.04,.22,.01,.45,.16,.62s.36,.27,.58,.27H12.01c-.79-1.05-1.26-2.34-1.26-3.75,0-.99,.24-1.92,.65-2.75Z"/></g></g><g id="g"/><g id="h"/><g id="i"/><g id="j"/><g id="k"/><g id="l"/><g id="m"/><g id="n"/><g id="o"/><g id="p"/><g id="q"/><g id="r"/><g id="s"/><g id="t"/><g id="u"/></svg>