<?xml version="1.0" encoding="UTF-8"?><svg xmlns="http://www.w3.org/2000/svg" viewBox="0 0 24 24" fill="currentColor"><g id="a"/><g id="b"/><g id="c"/><g id="d"/><g id="e"><path d="M18.89,5.11c-2.05-2.05-4.9-3.08-7.81-2.81C6.52,2.71,2.83,6.31,2.32,10.86c-.2,1.79,.08,3.59,.82,5.2,.33,.71,.34,1.58,.03,2.38l-.87,2.29c-.1,.28-.04,.59,.17,.8,.14,.14,.33,.22,.53,.22,.09,0,.18-.02,.27-.05l2.29-.87c.8-.3,1.67-.29,2.38,.03,1.61,.74,3.41,1.02,5.2,.82,4.55-.52,8.15-4.21,8.57-8.77,.27-2.91-.76-5.75-2.81-7.81Zm-6.89,6.14c1.52,0,2.75,1.23,2.75,2.75,0,1.25-.85,2.3-2,2.63v1.37c0,.41-.34,.75-.75,.75s-.75-.34-.75-.75v-1.25h-1.25c-.41,0-.75-.34-.75-.75s.34-.75,.75-.75h2c.69,0,1.25-.56,1.25-1.25s-.56-1.25-1.25-1.25c-1.52,0-2.75-1.23-2.75-2.75,0-1.25,.85-2.3,2-2.63v-1.37c0-.41,.34-.75,.75-.75s.75,.34,.75,.75v1.25h1.25c.41,0,.75,.34,.75,.75s-.34,.75-.75,.75h-2c-.69,0-1.25,.56-1.25,1.25s.56,1.25,1.25,1.25Z"/></g><g id="f"/><g id="g"/><g id="h"/><g id="i"/><g id="j"/><g id="k"/><g id="l"/><g id="m"/><g id="n"/><g id="o"/><g id="p"/><g id="q"/><g id="r"/><g id="s"/><g id="t"/><g id="u"/></svg>