<?xml version="1.0" encoding="UTF-8"?><svg xmlns="http://www.w3.org/2000/svg" viewBox="0 0 24 24" fill="currentColor"><g id="a"/><g id="b"/><g id="c"/><g id="d"/><g id="e"/><g id="f"/><g id="g"/><g id="h"/><g id="i"><path d="M19,3.25H5c-1.52,0-2.75,1.23-2.75,2.75V14c0,1.52,1.23,2.75,2.75,2.75h3.79l-1.46,2.92c-.19,.37-.04,.82,.34,1.01,.37,.18,.82,.04,1.01-.34l1.79-3.58h3.07l1.79,3.58c.13,.26,.4,.42,.67,.42,.11,0,.23-.03,.33-.08,.37-.19,.52-.64,.34-1.01l-1.46-2.92h3.79c1.52,0,2.75-1.23,2.75-2.75V6c0-1.52-1.23-2.75-2.75-2.75Zm-.47,5.28l-4,4c-.15,.15-.34,.22-.53,.22s-.38-.07-.53-.22l-3.47-3.47-3.47,3.47c-.29,.29-.77,.29-1.06,0s-.29-.77,0-1.06l4-4c.29-.29,.77-.29,1.06,0l3.47,3.47,3.47-3.47c.29-.29,.77-.29,1.06,0s.29,.77,0,1.06Z"/></g><g id="j"/><g id="k"/><g id="l"/><g id="m"/><g id="n"/><g id="o"/><g id="p"/><g id="q"/><g id="r"/><g id="s"/><g id="t"/><g id="u"/></svg>