<?xml version="1.0" encoding="UTF-8"?><svg xmlns="http://www.w3.org/2000/svg" viewBox="0 0 24 24" fill="currentColor"><g id="a"/><g id="b"/><g id="c"/><g id="d"/><g id="e"/><g id="f"/><g id="g"/><g id="h"/><g id="i"/><g id="j"/><g id="k"/><g id="l"/><g id="m"/><g id="n"/><g id="o"/><g id="p"><path d="M13,7.25h-.25v-.25c0-1.52-1.23-2.75-2.75-2.75h-1c-.69,0-1.25-.56-1.25-1.25,0-.41-.34-.75-.75-.75s-.75,.34-.75,.75c0,1.52,1.23,2.75,2.75,2.75h1c.69,0,1.25,.56,1.25,1.25v.25h-.25c-2.62,0-4.75,2.13-4.75,4.75v5c0,2.62,2.13,4.75,4.75,4.75h2c2.62,0,4.75-2.13,4.75-4.75v-5c0-2.62-2.13-4.75-4.75-4.75Zm-.25,5.75c0,.41-.34,.75-.75,.75s-.75-.34-.75-.75v-2c0-.41,.34-.75,.75-.75s.75,.34,.75,.75v2Z"/></g><g id="q"/><g id="r"/><g id="s"/><g id="t"/><g id="u"/></svg>