<?xml version="1.0" encoding="UTF-8"?><svg xmlns="http://www.w3.org/2000/svg" viewBox="0 0 24 24" fill="currentColor"><g id="a"/><g id="b"/><g id="c"/><g id="d"/><g id="e"/><g id="f"/><g id="g"/><g id="h"/><g id="i"/><g id="j"/><g id="k"><g><path d="M18,4.25H6c-2.07,0-3.75,1.68-3.75,3.75v.25H21.75v-.25c0-2.07-1.68-3.75-3.75-3.75Z"/><path d="M2.25,15c0,2.07,1.68,3.75,3.75,3.75h7.88c-.08-.24-.13-.49-.13-.75,0-1.16,.88-2.12,2.01-2.24,.12-1.13,1.08-2.01,2.24-2.01s2.12,.88,2.24,2.01c.48,.05,.91,.26,1.26,.57,.16-.42,.26-.86,.26-1.33v-5.25H2.25v5.25Zm4.75-.75h3c.41,0,.75,.34,.75,.75s-.34,.75-.75,.75h-3c-.41,0-.75-.34-.75-.75s.34-.75,.75-.75Z"/><path d="M20,17.25h-1.25v-1.25c0-.41-.34-.75-.75-.75s-.75,.34-.75,.75v1.25h-1.25c-.41,0-.75,.34-.75,.75s.34,.75,.75,.75h1.25v1.25c0,.41,.34,.75,.75,.75s.75-.34,.75-.75v-1.25h1.25c.41,0,.75-.34,.75-.75s-.34-.75-.75-.75Z"/></g></g><g id="l"/><g id="m"/><g id="n"/><g id="o"/><g id="p"/><g id="q"/><g id="r"/><g id="s"/><g id="t"/><g id="u"/></svg>