<svg id="Layer_1" data-name="Layer 1" xmlns="http://www.w3.org/2000/svg" viewBox="0 0 256 256"><defs><style>.cls-1{fill:red;}.cls-2{fill:#171796;}.cls-3{fill:#f3f4f5;}.cls-4{fill:#fff;}</style></defs><path class="cls-1" d="M8.63,85.71H247.08A126.48,126.48,0,0,0,128,1.41h-.19A126.48,126.48,0,0,0,8.63,85.71Z"/><path class="cls-2" d="M247.08,170H8.63a126.46,126.46,0,0,0,238.45,0Z"/><path class="cls-3" d="M247.08,170a126.48,126.48,0,0,0,0-84.3H8.63a126.64,126.64,0,0,0,0,84.3Z"/><path class="cls-4" d="M125.56,196.19a50.48,50.48,0,0,0,50.33-50.33V85.73H75.24v60.13a50.47,50.47,0,0,0,50.32,50.33Z"/><path class="cls-1" d="M96.48,87.63H77.11V108.9H96.48Zm0,42.55h19.36V108.9H96.48ZM77.11,145.75a49,49,0,0,0,.34,5.71h19V130.18H77.11v15.57Zm58.1-15.57H115.85v21.28h19.36V130.18Zm0,42.56h19.37V151.46H135.21Zm19.37,11.63a48.89,48.89,0,0,0,11.06-11.63H154.58v11.63Zm-58.1-11.63h19.37V151.46H96.48Zm-11.08,0a49.25,49.25,0,0,0,11.08,11.65V172.74ZM128.9,194a48.39,48.39,0,0,0,6.31-.86V172.73H115.84v20.42a47.7,47.7,0,0,0,6.3.86,56.47,56.47,0,0,0,6.76,0Z"/><path class="cls-1" d="M173.58,151.46a47.27,47.27,0,0,0,.35-5.73V130.18H154.58v21.28Zm-38.37-21.28h19.37V108.9H135.21Zm0-42.55H115.85V108.9h19.36V87.63Zm38.72,21.27V87.63H154.58V108.9Z"/></svg>