<svg width="22" height="26" viewBox="0 0 22 26" fill="none" xmlns="http://www.w3.org/2000/svg">
<path d="M17.3848 0H4.05143C2.02477 0 0.384766 1.64 0.384766 3.66667V22.3333C0.384766 24.36 2.02477 26 4.05143 26H17.3848C19.4114 26 21.0514 24.36 21.0514 22.3333V3.66667C21.0514 1.64 19.4114 0 17.3848 0ZM2.38477 10H19.0514V16H2.38477V10ZM2.38477 3.66667C2.38477 2.74667 3.13143 2 4.05143 2H17.3848C18.3048 2 19.0514 2.74667 19.0514 3.66667V8H2.38477V3.66667ZM19.0514 22.3333C19.0514 23.2533 18.3048 24 17.3848 24H4.05143C3.13143 24 2.38477 23.2533 2.38477 22.3333V18H19.0514V22.3333Z" fill="#333333"/>
<path d="M10.7449 4H10.7315C10.1849 4 9.74487 4.45333 9.74487 5C9.74487 5.54667 10.1982 6 10.7449 6C11.2915 6 11.7449 5.54667 11.7449 5C11.7449 4.45333 11.2915 4 10.7449 4Z" fill="#333333"/>
<path d="M10.7449 12H10.7315C10.1849 12 9.74487 12.4533 9.74487 13C9.74487 13.5467 10.1982 14 10.7449 14C11.2915 14 11.7449 13.5467 11.7449 13C11.7449 12.4533 11.2915 12 10.7449 12Z" fill="#333333"/>
<path d="M10.7449 22C11.2915 22 11.7449 21.5467 11.7449 21C11.7449 20.4533 11.2915 20 10.7449 20H10.7315C10.1849 20 9.74487 20.4533 9.74487 21C9.74487 21.5467 10.1982 22 10.7449 22Z" fill="#333333"/>
</svg>
