<?xml version="1.0" encoding="UTF-8"?><svg xmlns="http://www.w3.org/2000/svg" width="20" height="20" viewBox="0 0 24 24"><defs><style>.v{fill:currentColor;}</style></defs><g id="a"/><g id="b"/><g id="c"/><g id="d"/><g id="e"/><g id="f"/><g id="g"/><g id="h"/><g id="i"/><g id="j"/><g id="k"/><g id="l"/><g id="m"/><g id="n"><path class="v" d="M21.69,15.51c-.2-.23-.51-.31-.8-.22-3.06,1.02-6.43-.09-8.21-2.71-1.9-2.8-1.51-6.6,.91-9.05,.21-.21,.28-.54,.16-.82s-.39-.46-.69-.46C7.68,2.25,3.31,6.62,3.31,12s4.37,9.75,9.75,9.75c3.73,0,7.08-2.08,8.74-5.42,.13-.27,.09-.6-.11-.83Zm-8.63,4.74c-4.55,0-8.25-3.7-8.25-8.25,0-3.97,2.82-7.29,6.55-8.07-1.84,2.88-1.87,6.62,.08,9.5,1.8,2.66,4.95,4.03,8.1,3.69-1.54,1.97-3.91,3.14-6.48,3.14Z"/></g><g id="o"/><g id="p"/><g id="q"/><g id="r"/><g id="s"/><g id="t"/><g id="u"/></svg>