<svg width="20" height="20" viewBox="0 0 20 20" fill="none" xmlns="http://www.w3.org/2000/svg">
<path d="M9.75 0C4.37 0 0 4.37 0 9.75C0 15.13 4.37 19.5 9.75 19.5C15.13 19.5 19.5 15.13 19.5 9.75C19.5 4.37 15.13 0 9.75 0ZM9.75 18C5.2 18 1.5 14.3 1.5 9.75C1.5 5.2 5.2 1.5 9.75 1.5C14.3 1.5 18 5.2 18 9.75C18 14.3 14.3 18 9.75 18Z" fill="#333333"/>
<path d="M14.3102 9.49031C14.0302 9.18031 13.5602 9.15031 13.2502 9.43031C12.8402 9.80031 12.3002 10.0003 11.7502 10.0003C10.5102 10.0003 9.50023 8.99031 9.50023 7.75031C9.50023 7.20031 9.70023 6.66031 10.0702 6.25031C10.3502 5.94031 10.3202 5.47031 10.0102 5.19031C9.81023 5.01031 9.54023 4.97031 9.30023 5.04031C9.26023 5.04031 9.23023 5.03031 9.19023 5.03031C7.04023 5.29031 5.34023 6.97031 5.05023 9.12031C4.70023 11.7203 6.53023 14.1103 9.13023 14.4603C9.34023 14.4903 9.55023 14.5003 9.76023 14.5003C12.1002 14.5003 14.1502 12.7603 14.4702 10.3803C14.4702 10.3203 14.4702 10.2603 14.4602 10.2003C14.5302 9.96031 14.5002 9.69031 14.3102 9.48031V9.49031ZM9.33023 12.9803C7.55023 12.7403 6.30023 11.1003 6.54023 9.33031C6.67023 8.33031 7.27023 7.48031 8.09023 6.98031C8.04023 7.23031 8.00023 7.49031 8.00023 7.76031C8.00023 9.83031 9.68023 11.5103 11.7502 11.5103C12.0202 11.5103 12.2902 11.4703 12.5602 11.4103C11.9102 12.5003 10.6602 13.1603 9.33023 12.9803Z" fill="#333333"/>
</svg>
