<svg width="18" height="19" viewBox="0 0 18 19" fill="none" xmlns="http://www.w3.org/2000/svg">
<path d="M15.25 2.4975H13L10.4 0.5475C9.43 -0.1825 8.07 -0.1825 7.1 0.5475L4.5 2.4975H2.25C1.01 2.4975 0 3.5075 0 4.7475C0 5.9875 1.01 6.9975 2.25 6.9975H15.25C16.49 6.9975 17.5 5.9875 17.5 4.7475C17.5 3.5075 16.49 2.4975 15.25 2.4975ZM8 1.7475C8.44 1.4175 9.06 1.4175 9.5 1.7475L10.5 2.4975H7L8 1.7475ZM15.25 5.4975H2.25C1.84 5.4975 1.5 5.1575 1.5 4.7475C1.5 4.3375 1.84 3.9975 2.25 3.9975H15.25C15.66 3.9975 16 4.3375 16 4.7475C16 5.1575 15.66 5.4975 15.25 5.4975Z" fill="#FF617E"/>
<path d="M15.37 8.5078C14.96 8.4378 14.58 8.7178 14.51 9.1278L13.43 15.6178C13.25 16.7078 12.32 17.4978 11.21 17.4978H6.29004C5.19004 17.4978 4.25004 16.7078 4.07004 15.6178L2.99004 9.1278C2.92004 8.7178 2.53004 8.4478 2.13004 8.5078C1.72004 8.5778 1.45004 8.9678 1.51004 9.3678L2.59004 15.8578C2.89004 17.6778 4.45004 18.9878 6.29004 18.9878H11.21C13.05 18.9878 14.61 17.6678 14.91 15.8578L15.99 9.3678C16.06 8.9578 15.78 8.5778 15.37 8.5078Z" fill="#FF617E"/>
<path d="M6.58004 14.9971C6.58004 14.9971 6.66004 14.9971 6.70004 14.9971C7.11004 14.9271 7.38004 14.5371 7.32004 14.1371L6.49004 9.13712C6.42004 8.72712 6.04004 8.45712 5.63004 8.51712C5.22004 8.58712 4.95004 8.97712 5.01004 9.37712L5.84004 14.3771C5.90004 14.7471 6.22004 15.0071 6.58004 15.0071V14.9971Z" fill="#FF617E"/>
<path d="M10.9199 14.9978C11.2799 14.9978 11.5999 14.7378 11.6599 14.3678L12.4899 9.3678C12.5599 8.9578 12.2799 8.5778 11.8699 8.5078C11.4599 8.4378 11.0799 8.7178 11.0099 9.1278L10.1799 14.1278C10.1099 14.5378 10.3899 14.9178 10.7999 14.9878C10.8399 14.9878 10.8799 14.9878 10.9199 14.9878V14.9978Z" fill="#FF617E"/>
</svg>
