<svg width="20" height="20" viewBox="0 0 20 20" fill="none" xmlns="http://www.w3.org/2000/svg">
<path d="M18.7503 2.505L17.3403 1.095C15.8803 -0.365 13.5003 -0.365 12.0403 1.095L2.03026 11.095C1.53026 11.595 1.19026 12.215 1.03026 12.895L0.0602564 17.075C-0.119744 17.835 0.110257 18.625 0.660257 19.175C1.09026 19.605 1.66026 19.835 2.24026 19.835C2.41026 19.835 2.58026 19.815 2.75026 19.775L6.93026 18.805C7.61026 18.645 8.24026 18.305 8.73026 17.805L18.7303 7.805C19.4403 7.095 19.8303 6.155 19.8303 5.155C19.8303 4.155 19.4403 3.215 18.7303 2.505H18.7503ZM7.69026 16.745C7.39026 17.045 7.02026 17.255 6.61026 17.345L2.43026 18.315C2.06026 18.395 1.82026 18.205 1.73026 18.115C1.64026 18.025 1.44026 17.785 1.53026 17.415L2.50026 13.235C2.60026 12.825 2.80026 12.455 3.10026 12.155L11.1503 4.095L15.7503 8.695L7.70026 16.745H7.69026ZM17.6903 6.745L16.8103 7.625L12.2103 3.025L13.0903 2.145C13.5303 1.705 14.1003 1.485 14.6803 1.485C15.2603 1.485 15.8303 1.705 16.2703 2.145L17.6803 3.555C18.1003 3.975 18.3403 4.545 18.3403 5.145C18.3403 5.745 18.1103 6.315 17.6803 6.735L17.6903 6.745Z" fill="currentColor"/>
</svg>
