<svg width="19" height="20" viewBox="0 0 19 20" fill="none" xmlns="http://www.w3.org/2000/svg">
<path d="M16.75 0.00999999H1.75C0.79 0.00999999 0 0.8 0 1.76V3.35C0 3.81 0.19 4.26 0.51 4.59L5.92 10C5.92 10 5.99 10.11 5.99 10.18V17.68C5.99 18.36 6.37 18.96 6.98 19.26C7.22 19.38 7.48 19.44 7.74 19.44C8.13 19.44 8.51 19.31 8.83 19.05L11.83 16.65C12.25 16.32 12.49 15.82 12.49 15.28V10.17C12.49 10.1 12.52 10.04 12.56 9.99L17.97 4.58C18.3 4.25 18.48 3.8 18.48 3.34V1.75C18.48 0.79 17.69 0 16.73 0L16.75 0.00999999ZM17 3.35C17 3.42 16.97 3.48 16.93 3.53L11.52 8.94C11.19 9.27 11.01 9.72 11.01 10.18V15.29C11.01 15.37 10.98 15.44 10.92 15.48L7.92 17.88C7.81 17.97 7.71 17.94 7.66 17.91C7.61 17.88 7.52 17.82 7.52 17.68V10.18C7.52 9.72 7.33 9.27 7.01 8.94L1.57 3.52C1.57 3.52 1.5 3.41 1.5 3.34V1.75C1.5 1.61 1.61 1.5 1.75 1.5H16.75C16.89 1.5 17 1.61 17 1.75V3.34V3.35Z" fill="#333333"/>
</svg>
