<?xml version="1.0" encoding="UTF-8"?><svg xmlns="http://www.w3.org/2000/svg" width="20" height="20" viewBox="0 0 24 24"><defs><style>.v{fill:currentColor;}</style></defs><g id="a"/><g id="b"/><g id="c"/><g id="d"/><g id="e"/><g id="f"/><g id="g"/><g id="h"/><g id="i"/><g id="j"/><g id="k"/><g id="l"/><g id="m"/><g id="n"/><g id="o"/><g id="p"/><g id="q"/><g id="r"><g><path class="v" d="M12,6.25c-3.17,0-5.75,2.58-5.75,5.75s2.58,5.75,5.75,5.75,5.75-2.58,5.75-5.75-2.58-5.75-5.75-5.75Zm0,10c-2.34,0-4.25-1.91-4.25-4.25s1.91-4.25,4.25-4.25,4.25,1.91,4.25,4.25-1.91,4.25-4.25,4.25Z"/><path class="v" d="M12,5.75c.41,0,.75-.34,.75-.75V3c0-.41-.34-.75-.75-.75s-.75,.34-.75,.75v2c0,.41,.34,.75,.75,.75Z"/><path class="v" d="M12,18.25c-.41,0-.75,.34-.75,.75v2c0,.41,.34,.75,.75,.75s.75-.34,.75-.75v-2c0-.41-.34-.75-.75-.75Z"/><path class="v" d="M21,11.25h-2c-.41,0-.75,.34-.75,.75s.34,.75,.75,.75h2c.41,0,.75-.34,.75-.75s-.34-.75-.75-.75Z"/><path class="v" d="M5.75,12c0-.41-.34-.75-.75-.75H3c-.41,0-.75,.34-.75,.75s.34,.75,.75,.75h2c.41,0,.75-.34,.75-.75Z"/><path class="v" d="M5.47,7.53c.15,.15,.34,.22,.53,.22s.38-.07,.53-.22c.29-.29,.29-.77,0-1.06l-1.41-1.41c-.29-.29-.77-.29-1.06,0s-.29,.77,0,1.06l1.41,1.41Z"/><path class="v" d="M18,7.75c.19,0,.38-.07,.53-.22l1.41-1.41c.29-.29,.29-.77,0-1.06s-.77-.29-1.06,0l-1.41,1.41c-.29,.29-.29,.77,0,1.06,.15,.15,.34,.22,.53,.22Z"/><path class="v" d="M5.47,16.47l-1.41,1.41c-.29,.29-.29,.77,0,1.06,.15,.15,.34,.22,.53,.22s.38-.07,.53-.22l1.41-1.41c.29-.29,.29-.77,0-1.06s-.77-.29-1.06,0Z"/><path class="v" d="M18.53,16.47c-.29-.29-.77-.29-1.06,0s-.29,.77,0,1.06l1.41,1.41c.15,.15,.34,.22,.53,.22s.38-.07,.53-.22c.29-.29,.29-.77,0-1.06l-1.41-1.41Z"/></g></g><g id="s"/><g id="t"/><g id="u"/></svg>