<svg width="16" height="20" viewBox="0 0 16 20" fill="none" xmlns="http://www.w3.org/2000/svg">
<path d="M12.5 7.08V4.75C12.5 2.13 10.37 0 7.75 0C5.13 0 3 2.13 3 4.75V7.08C1.29 7.43 0 8.94 0 10.75V15.75C0 17.82 1.68 19.5 3.75 19.5H11.75C13.82 19.5 15.5 17.82 15.5 15.75V10.75C15.5 8.94 14.21 7.42 12.5 7.08ZM7.75 1.5C9.54 1.5 11 2.96 11 4.75V7H4.5V4.75C4.5 2.96 5.96 1.5 7.75 1.5ZM14 15.75C14 16.99 12.99 18 11.75 18H3.75C2.51 18 1.5 16.99 1.5 15.75V10.75C1.5 9.51 2.51 8.5 3.75 8.5H11.75C12.99 8.5 14 9.51 14 10.75V15.75Z" fill="#FF617E"/>
<path d="M7.75 11C7.34 11 7 11.34 7 11.75V14.75C7 15.16 7.34 15.5 7.75 15.5C8.16 15.5 8.5 15.16 8.5 14.75V11.75C8.5 11.34 8.16 11 7.75 11Z" fill="#FF617E"/>
</svg>
