<svg width="30" height="21" viewBox="0 0 30 21" fill="none" xmlns="http://www.w3.org/2000/svg">
<path d="M23.9572 0H6.04263C2.95237 0 0.444336 2.50803 0.444336 5.59829V14.5556C0.444336 17.6458 2.95237 20.1538 6.04263 20.1538H23.9572C27.0474 20.1538 29.5554 17.6458 29.5554 14.5556V5.59829C29.5554 2.50803 27.0474 0 23.9572 0ZM6.04263 2.23932H23.9572C25.8083 2.23932 27.3161 3.74712 27.3161 5.59829V5.97151H2.68365V5.59829C2.68365 3.74712 4.19146 2.23932 6.04263 2.23932ZM23.9572 17.9145H6.04263C4.19146 17.9145 2.68365 16.4067 2.68365 14.5556V8.21083H27.3161V14.5556C27.3161 16.4067 25.8083 17.9145 23.9572 17.9145Z" fill="#333333"/>
<path d="M10.5211 13.4365H6.04251C5.43043 13.4365 4.92285 13.9441 4.92285 14.5562C4.92285 15.1683 5.43043 15.6758 6.04251 15.6758H10.5211C11.1332 15.6758 11.6408 15.1683 11.6408 14.5562C11.6408 13.9441 11.1332 13.4365 10.5211 13.4365Z" fill="#333333"/>
</svg>
