<svg width="22" height="17" viewBox="0 0 22 17" fill="currentColor" xmlns="http://www.w3.org/2000/svg">
<path d="M17.7692 0H4.23077C1.89538 0 0 1.89538 0 4.23077V12.1282C0 14.4636 1.89538 16.359 4.23077 16.359H11C11.4626 16.359 11.8462 15.9754 11.8462 15.5128C11.8462 15.0503 11.4626 14.6667 11 14.6667H4.23077C2.83179 14.6667 1.69231 13.5272 1.69231 12.1282V6.20513H20.3077V11C20.3077 11.4626 20.6913 11.8462 21.1538 11.8462C21.6164 11.8462 22 11.4626 22 11V4.23077C22 1.89538 20.1046 0 17.7692 0ZM1.69231 4.51282V4.23077C1.69231 2.83179 2.83179 1.69231 4.23077 1.69231H17.7692C19.1682 1.69231 20.3077 2.83179 20.3077 4.23077V4.51282H1.69231Z" fill="#currentColor"/>
<path d="M5.35897 11.2822C4.89641 11.2822 4.51282 11.6658 4.51282 12.1284C4.51282 12.5909 4.89641 12.9745 5.35897 12.9745H8.74359C9.20615 12.9745 9.58974 12.5909 9.58974 12.1284C9.58974 11.6658 9.20615 11.2822 8.74359 11.2822H5.35897Z" fill="#currentColor"/>
<path d="M20.0256 14.6665H18.6153L18.5 14.666C17.7692 14.6671 18.2318 14.6667 17.7692 14.6667C17.3066 14.6667 17.4292 14.6665 16.923 14.6665H15.5128C15.0502 14.6665 14.6666 15.0501 14.6666 15.5127C14.6666 15.9752 15.0502 16.3588 15.5128 16.3588H16.923H17.2089C17.567 16.3588 17.4625 16.3588 17.9251 16.3588C18.3876 16.3588 18.1179 16.3588 18.2694 16.3588H18.6153H20.0256C20.4882 16.3588 20.8718 15.9752 20.8718 15.5127C20.8718 15.0501 20.4882 14.6665 20.0256 14.6665Z" fill="#currentColor"/>
</svg>
