<svg width="20" height="21" viewBox="0 0 20 21" fill="none" xmlns="http://www.w3.org/2000/svg">
<path d="M19.2638 15.6419L15.0776 11.4557C16.5346 8.49045 16.0421 4.78646 13.5693 2.32397C10.4707 -0.774657 5.4226 -0.774657 2.32397 2.32397C-0.774657 5.4226 -0.774657 10.4707 2.32397 13.5693C3.87328 15.1186 5.9151 15.8984 7.94665 15.8984C9.14711 15.8984 10.3476 15.6214 11.4557 15.0776L15.6419 19.2638C16.1242 19.7461 16.7706 20.0128 17.4477 20.0128C18.1249 20.0128 18.7713 19.7461 19.2536 19.2638C20.2488 18.2686 20.2488 16.6474 19.2536 15.6419H19.2638ZM3.41157 12.4817C0.908041 9.9782 0.908041 5.9151 3.41157 3.41157C4.66333 2.1598 6.30499 1.53392 7.94665 1.53392C9.5883 1.53392 11.23 2.1598 12.4817 3.41157C14.9853 5.9151 14.9853 9.9782 12.4817 12.4817C9.9782 14.9853 5.9151 14.9853 3.41157 12.4817ZM18.1762 18.1762C17.7863 18.5661 17.1194 18.5661 16.7295 18.1762L12.7895 14.2362C13.0563 14.031 13.3128 13.8156 13.5591 13.5693C13.8053 13.3231 14.0208 13.0666 14.226 12.7998L18.166 16.7398C18.5661 17.1399 18.5661 17.7863 18.166 18.1865L18.1762 18.1762Z" fill="#333333"/>
</svg>
