<svg width="20" height="20" viewBox="0 0 20 20" fill="none" xmlns="http://www.w3.org/2000/svg">
<path d="M13.75 0H5.75C2.58 0 0 2.58 0 5.75V13.75C0 16.92 2.58 19.5 5.75 19.5H13.75C16.92 19.5 19.5 16.92 19.5 13.75V5.75C19.5 2.58 16.92 0 13.75 0ZM18 13.75C18 16.09 16.09 18 13.75 18H5.75C3.41 18 1.5 16.09 1.5 13.75V5.75C1.5 3.41 3.41 1.5 5.75 1.5H13.75C16.09 1.5 18 3.41 18 5.75V13.75Z" fill="#333333"/>
<path d="M6.75 3C5.23 3 4 4.23 4 5.75C4 7 4.85 8.05 6 8.38V15.75C6 16.16 6.34 16.5 6.75 16.5C7.16 16.5 7.5 16.16 7.5 15.75V8.38C8.65 8.05 9.5 7 9.5 5.75C9.5 4.23 8.27 3 6.75 3ZM6.75 7C6.06 7 5.5 6.44 5.5 5.75C5.5 5.06 6.06 4.5 6.75 4.5C7.44 4.5 8 5.06 8 5.75C8 6.44 7.44 7 6.75 7Z" fill="#333333"/>
<path d="M13.5 11.12V3.75C13.5 3.34 13.16 3 12.75 3C12.34 3 12 3.34 12 3.75V11.12C10.85 11.45 10 12.5 10 13.75C10 15.27 11.23 16.5 12.75 16.5C14.27 16.5 15.5 15.27 15.5 13.75C15.5 12.5 14.65 11.45 13.5 11.12ZM12.75 15C12.06 15 11.5 14.44 11.5 13.75C11.5 13.06 12.06 12.5 12.75 12.5C13.44 12.5 14 13.06 14 13.75C14 14.44 13.44 15 12.75 15Z" fill="#333333"/>
</svg>
