<svg width="20" height="20" viewBox="0 0 20 20" fill="none" xmlns="http://www.w3.org/2000/svg">
<path d="M3.75 0H1.75C0.79 0 0 0.79 0 1.75V3.75C0 4.71 0.79 5.5 1.75 5.5H3.75C4.71 5.5 5.5 4.71 5.5 3.75V1.75C5.5 0.79 4.71 0 3.75 0ZM4 3.75C4 3.89 3.89 4 3.75 4H1.75C1.61 4 1.5 3.89 1.5 3.75V1.75C1.5 1.61 1.61 1.5 1.75 1.5H3.75C3.89 1.5 4 1.61 4 1.75V3.75Z" fill="#333333"/>
<path d="M3.75 7H1.75C0.79 7 0 7.79 0 8.75V10.75C0 11.71 0.79 12.5 1.75 12.5H3.75C4.71 12.5 5.5 11.71 5.5 10.75V8.75C5.5 7.79 4.71 7 3.75 7ZM4 10.75C4 10.89 3.89 11 3.75 11H1.75C1.61 11 1.5 10.89 1.5 10.75V8.75C1.5 8.61 1.61 8.5 1.75 8.5H3.75C3.89 8.5 4 8.61 4 8.75V10.75Z" fill="#333333"/>
<path d="M3.75 14H1.75C0.79 14 0 14.79 0 15.75V17.75C0 18.71 0.79 19.5 1.75 19.5H3.75C4.71 19.5 5.5 18.71 5.5 17.75V15.75C5.5 14.79 4.71 14 3.75 14ZM4 17.75C4 17.89 3.89 18 3.75 18H1.75C1.61 18 1.5 17.89 1.5 17.75V15.75C1.5 15.61 1.61 15.5 1.75 15.5H3.75C3.89 15.5 4 15.61 4 15.75V17.75Z" fill="#333333"/>
<path d="M7.75 3.5H18.75C19.16 3.5 19.5 3.16 19.5 2.75C19.5 2.34 19.16 2 18.75 2H7.75C7.34 2 7 2.34 7 2.75C7 3.16 7.34 3.5 7.75 3.5Z" fill="#333333"/>
<path d="M18.75 9H7.75C7.34 9 7 9.34 7 9.75C7 10.16 7.34 10.5 7.75 10.5H18.75C19.16 10.5 19.5 10.16 19.5 9.75C19.5 9.34 19.16 9 18.75 9Z" fill="#333333"/>
<path d="M18.75 16H7.75C7.34 16 7 16.34 7 16.75C7 17.16 7.34 17.5 7.75 17.5H18.75C19.16 17.5 19.5 17.16 19.5 16.75C19.5 16.34 19.16 16 18.75 16Z" fill="#333333"/>
</svg>
