<svg width="19" height="20" viewBox="0 0 19 20" fill="none" xmlns="http://www.w3.org/2000/svg">
<path d="M15.75 14H2.75C1.23 14 0 15.23 0 16.75C0 18.27 1.23 19.5 2.75 19.5H15.75C17.27 19.5 18.5 18.27 18.5 16.75C18.5 15.23 17.27 14 15.75 14ZM15.75 18H2.75C2.06 18 1.5 17.44 1.5 16.75C1.5 16.06 2.06 15.5 2.75 15.5H15.75C16.44 15.5 17 16.06 17 16.75C17 17.44 16.44 18 15.75 18Z" fill="#333333"/>
<path d="M2.75 12.5H10.75C12.27 12.5 13.5 11.27 13.5 9.75C13.5 8.23 12.27 7 10.75 7H2.75C1.23 7 0 8.23 0 9.75C0 11.27 1.23 12.5 2.75 12.5ZM2.75 8.5H10.75C11.44 8.5 12 9.06 12 9.75C12 10.44 11.44 11 10.75 11H2.75C2.06 11 1.5 10.44 1.5 9.75C1.5 9.06 2.06 8.5 2.75 8.5Z" fill="#333333"/>
<path d="M2.75 5.5H6.75C8.27 5.5 9.5 4.27 9.5 2.75C9.5 1.23 8.27 0 6.75 0H2.75C1.23 0 0 1.23 0 2.75C0 4.27 1.23 5.5 2.75 5.5ZM2.75 1.5H6.75C7.44 1.5 8 2.06 8 2.75C8 3.44 7.44 4 6.75 4H2.75C2.06 4 1.5 3.44 1.5 2.75C1.5 2.06 2.06 1.5 2.75 1.5Z" fill="#333333"/>
</svg>
