<svg width="20" height="17" viewBox="0 0 20 17" fill="none" xmlns="http://www.w3.org/2000/svg">
<path d="M17.75 11H13.16C12.69 11 12.25 11.18 11.92 11.51L11.51 11.92C11.51 11.92 11.4 11.99 11.33 11.99H8.16C8.09 11.99 8.03 11.96 7.98 11.92L7.57 11.51C7.24 11.18 6.8 11 6.33 11H2.49V2.75C2.49 2.06 3.05 1.5 3.74 1.5H16.74C17.15 1.5 17.49 1.16 17.49 0.75C17.49 0.34 17.15 0 16.74 0H3.75C2.23 0 1 1.23 1 2.75V11.18C0.41 11.46 0 12.06 0 12.75V14.75C0 15.71 0.79 16.5 1.75 16.5H17.75C18.71 16.5 19.5 15.71 19.5 14.75V12.75C19.5 11.79 18.71 11 17.75 11ZM18 14.75C18 14.89 17.89 15 17.75 15H1.75C1.61 15 1.5 14.89 1.5 14.75V12.75C1.5 12.61 1.61 12.5 1.75 12.5H6.34C6.41 12.5 6.47 12.53 6.52 12.57L6.93 12.98C7.26 13.31 7.7 13.49 8.17 13.49H11.34C11.81 13.49 12.25 13.31 12.58 12.98L12.99 12.57C12.99 12.57 13.1 12.5 13.17 12.5H17.76C17.9 12.5 18.01 12.61 18.01 12.75V14.75H18Z" fill="currentColor"/>
<path d="M17.75 3H12.75C11.79 3 11 3.79 11 4.75V7.75C11 8.71 11.79 9.5 12.75 9.5H17.75C18.71 9.5 19.5 8.71 19.5 7.75V4.75C19.5 3.79 18.71 3 17.75 3ZM18 7.75C18 7.89 17.89 8 17.75 8H12.75C12.61 8 12.5 7.89 12.5 7.75V4.75C12.5 4.61 12.61 4.5 12.75 4.5H17.75C17.89 4.5 18 4.61 18 4.75V7.75Z" fill="currentColor"/>
</svg>
