<?xml version="1.0" encoding="UTF-8"?><svg xmlns="http://www.w3.org/2000/svg" viewBox="0 0 24 24"><defs><style>.v{fill:currentColor;}</style></defs><g id="a"/><g id="b"/><g id="c"/><g id="d"><g><path class="v" d="M7.5,11.75c1.79,0,3.25-1.46,3.25-3.25s-1.46-3.25-3.25-3.25-3.25,1.46-3.25,3.25,1.46,3.25,3.25,3.25Zm0-5c.96,0,1.75,.79,1.75,1.75s-.79,1.75-1.75,1.75-1.75-.79-1.75-1.75,.79-1.75,1.75-1.75Z"/><path class="v" d="M16.5,11.75c1.79,0,3.25-1.46,3.25-3.25s-1.46-3.25-3.25-3.25-3.25,1.46-3.25,3.25,1.46,3.25,3.25,3.25Zm0-5c.96,0,1.75,.79,1.75,1.75s-.79,1.75-1.75,1.75-1.75-.79-1.75-1.75,.79-1.75,1.75-1.75Z"/><path class="v" d="M21.42,16.28c-.47-2.34-2.54-4.03-4.92-4.03-1.94,0-3.67,1.12-4.5,2.8-.83-1.68-2.56-2.8-4.5-2.8-2.38,0-4.45,1.7-4.92,4.03l-.31,1.57c-.08,.41,.18,.8,.59,.88,.41,.08,.8-.18,.88-.59l.31-1.57c.33-1.64,1.78-2.83,3.45-2.83s3.12,1.19,3.45,2.83l.31,1.57c.07,.35,.38,.6,.74,.6s.67-.25,.74-.6l.31-1.57c.33-1.64,1.78-2.83,3.45-2.83s3.12,1.19,3.45,2.83l.31,1.57c.07,.36,.38,.6,.73,.6,.05,0,.1,0,.15-.01,.41-.08,.67-.48,.59-.88l-.31-1.57Z"/></g></g><g id="e"/><g id="f"/><g id="g"/><g id="h"/><g id="i"/><g id="j"/><g id="k"/><g id="l"/><g id="m"/><g id="n"/><g id="o"/><g id="p"/><g id="q"/><g id="r"/><g id="s"/><g id="t"/><g id="u"/></svg>