<svg width="20" height="20" viewBox="0 0 20 20" fill="none" xmlns="http://www.w3.org/2000/svg">
<path d="M9.75 0C4.37 0 0 4.37 0 9.75C0 15.13 4.37 19.5 9.75 19.5C15.13 19.5 19.5 15.13 19.5 9.75C19.5 4.37 15.13 0 9.75 0ZM9.75 18C8.65 18 7.47 16.26 6.88 13.5H12.62C12.03 16.26 10.85 18 9.75 18ZM6.63 12C6.55 11.29 6.5 10.54 6.5 9.75C6.5 8.96 6.55 8.21 6.63 7.5H12.86C12.94 8.21 12.99 8.96 12.99 9.75C12.99 10.54 12.94 11.29 12.86 12H6.63ZM1.5 9.75C1.5 8.97 1.62 8.22 1.82 7.5H5.12C5.04 8.22 5 8.97 5 9.75C5 10.53 5.04 11.28 5.12 12H1.82C1.62 11.28 1.5 10.53 1.5 9.75ZM9.75 1.5C10.85 1.5 12.03 3.24 12.62 6H6.88C7.47 3.24 8.65 1.5 9.75 1.5ZM14.38 7.5H17.68C17.88 8.22 18 8.97 18 9.75C18 10.53 17.88 11.28 17.68 12H14.38C14.46 11.28 14.5 10.53 14.5 9.75C14.5 8.97 14.46 8.22 14.38 7.5ZM17.09 6H14.16C13.86 4.43 13.37 3.09 12.74 2.07C14.63 2.81 16.17 4.21 17.09 6ZM6.76 2.07C6.13 3.09 5.64 4.43 5.34 6H2.41C3.33 4.21 4.87 2.81 6.76 2.07ZM2.41 13.5H5.34C5.64 15.07 6.13 16.41 6.76 17.43C4.88 16.69 3.33 15.29 2.41 13.5ZM12.74 17.43C13.37 16.41 13.86 15.07 14.16 13.5H17.09C16.17 15.29 14.63 16.69 12.74 17.43Z" fill="#333333"/>
</svg>
