<?xml version="1.0" encoding="UTF-8"?>
<svg id="Layer_1" data-name="Layer 1" xmlns="http://www.w3.org/2000/svg" viewBox="0 0 244.77 31.05">
  <g>
    <path d="m60.38,27.85c-1.3,0-2.5-.17-3.58-.5-1.09-.33-2.07-.83-2.94-1.49-.88-.66-1.65-1.46-2.34-2.4l2.72-3.07c1.05,1.45,2.07,2.45,3.07,3.01,1,.55,2.13.83,3.39.83.73,0,1.39-.11,1.98-.34.6-.22,1.07-.53,1.41-.93.34-.39.51-.85.51-1.36,0-.36-.07-.7-.21-1.01-.14-.31-.35-.59-.62-.83-.28-.25-.62-.47-1.02-.69-.41-.21-.86-.39-1.38-.54s-1.08-.29-1.7-.42c-1.17-.23-2.2-.55-3.07-.94-.88-.39-1.61-.88-2.21-1.47-.6-.59-1.04-1.25-1.31-1.98-.28-.74-.42-1.57-.42-2.51s.21-1.8.62-2.59.99-1.47,1.71-2.05,1.57-1.02,2.53-1.34,1.99-.48,3.1-.48c1.26,0,2.38.15,3.38.45.99.3,1.87.74,2.62,1.33.76.59,1.38,1.29,1.87,2.13l-2.75,2.72c-.43-.66-.91-1.21-1.44-1.65s-1.11-.77-1.73-.99c-.62-.22-1.27-.34-1.95-.34-.77,0-1.44.11-2,.32-.57.21-1.01.52-1.33.91s-.48.87-.48,1.42c0,.43.1.81.29,1.14.19.33.46.62.82.88s.81.48,1.36.67c.55.19,1.18.36,1.89.51,1.17.24,2.23.55,3.17.94.94.39,1.74.86,2.4,1.41.66.54,1.16,1.16,1.5,1.86s.51,1.47.51,2.32c0,1.47-.35,2.74-1.04,3.79-.69,1.06-1.67,1.87-2.93,2.43s-2.73.85-4.42.85Z" style="fill: #fff;"/>
    <path d="m78.17,27.85c-1.22,0-2.27-.27-3.17-.82-.9-.54-1.58-1.32-2.05-2.34s-.7-2.22-.7-3.63v-10.4h3.94v9.57c0,.9.14,1.66.42,2.29.28.63.68,1.11,1.22,1.46.53.34,1.17.51,1.92.51.55,0,1.06-.09,1.52-.27.46-.18.86-.44,1.2-.77.34-.33.61-.73.8-1.18.19-.46.29-.95.29-1.49v-10.11h3.94v16.86h-3.84l-.06-3.52.7-.38c-.26.81-.69,1.53-1.3,2.16s-1.33,1.13-2.16,1.5-1.72.56-2.66.56Z" style="fill: #fff;"/>
    <path d="m101.09,27.85c-.75,0-1.48-.11-2.19-.34s-1.36-.53-1.94-.91c-.58-.38-1.06-.82-1.44-1.3-.38-.48-.64-.96-.77-1.46l.93-.42-.1,4.03h-3.81V3.85h3.94v10.72l-.7-.32c.11-.51.35-1,.72-1.46.37-.46.84-.88,1.39-1.25.55-.37,1.16-.67,1.82-.9.66-.22,1.33-.34,2.02-.34,1.51,0,2.85.37,4.02,1.12,1.16.75,2.08,1.78,2.75,3.1.67,1.32,1.01,2.83,1.01,4.51s-.33,3.22-.99,4.54-1.57,2.36-2.74,3.12c-1.16.76-2.47,1.14-3.92,1.14Zm-.83-3.46c.9,0,1.7-.23,2.4-.69s1.26-1.09,1.66-1.89c.4-.8.61-1.72.61-2.77s-.2-1.93-.59-2.72c-.39-.79-.94-1.41-1.65-1.86-.7-.45-1.51-.67-2.43-.67s-1.73.22-2.43.67c-.7.45-1.26,1.07-1.66,1.86-.41.79-.61,1.7-.61,2.72s.2,1.97.61,2.77c.4.8.96,1.43,1.66,1.89s1.51.69,2.43.69Z" style="fill: #fff;"/>
    <path d="m117.57,27.85c-1.49,0-2.83-.25-4.02-.75s-2.15-1.22-2.9-2.16l2.56-2.21c.64.73,1.35,1.25,2.14,1.57.79.32,1.62.48,2.5.48.36,0,.69-.04.98-.13.29-.08.54-.21.75-.38.21-.17.38-.37.5-.59.12-.22.18-.47.18-.75,0-.51-.19-.92-.58-1.22-.21-.15-.55-.31-1.01-.48-.46-.17-1.05-.34-1.78-.51-1.15-.3-2.11-.64-2.88-1.04-.77-.39-1.37-.84-1.79-1.33-.36-.41-.63-.86-.82-1.38s-.27-1.07-.27-1.66c0-.75.17-1.42.5-2.03.33-.61.78-1.14,1.36-1.58.58-.45,1.25-.79,2.02-1.02s1.57-.35,2.4-.35,1.68.11,2.48.32c.8.21,1.55.52,2.24.91.69.39,1.28.87,1.78,1.42l-2.18,2.4c-.41-.38-.85-.72-1.33-1.02-.48-.3-.97-.54-1.46-.72-.49-.18-.95-.27-1.38-.27s-.77.04-1.09.11c-.32.08-.59.19-.8.34-.21.15-.38.34-.5.56-.12.22-.18.48-.18.78.02.26.09.5.21.72.12.22.28.41.5.56.23.15.59.32,1.06.51.47.19,1.08.37,1.82.54,1.04.28,1.92.59,2.62.93.7.34,1.26.74,1.66,1.18.4.38.69.83.86,1.34.17.51.26,1.08.26,1.7,0,1-.28,1.9-.85,2.69-.57.79-1.33,1.41-2.3,1.86s-2.06.67-3.28.67Z" style="fill: #fff;"/>
    <path d="m130.88,27.53V8.97h-6.4v-3.84h17.15v3.84h-6.59v18.56h-4.16Z" style="fill: #fff;"/>
    <path d="m142.78,27.53V10.66h3.87l.06,5.38-.54-1.22c.23-.85.64-1.62,1.22-2.3.58-.68,1.24-1.22,2-1.62.76-.39,1.55-.59,2.38-.59.36,0,.71.03,1.04.1.33.06.6.14.82.22l-1.06,4.32c-.24-.13-.52-.23-.86-.32-.34-.08-.68-.13-1.02-.13-.53,0-1.04.1-1.52.3-.48.2-.9.49-1.26.85-.36.36-.65.79-.85,1.26-.2.48-.3,1.02-.3,1.62v8.99h-3.97Z" style="fill: #fff;"/>
    <path d="m161.6,27.85c-1.39,0-2.65-.38-3.78-1.15-1.13-.77-2.04-1.81-2.72-3.14-.68-1.32-1.02-2.83-1.02-4.51s.34-3.19,1.02-4.51,1.61-2.36,2.78-3.1c1.17-.75,2.5-1.12,3.97-1.12.85,0,1.63.12,2.34.37.7.25,1.32.59,1.86,1.04.53.45.98.96,1.33,1.54.35.58.59,1.19.72,1.86l-.86-.22v-4.22h3.97v16.86h-4v-4.03l.93-.16c-.15.58-.42,1.14-.82,1.68-.4.54-.89,1.02-1.47,1.44-.59.42-1.24.75-1.95,1.01-.71.26-1.48.38-2.29.38Zm1.09-3.49c.92,0,1.73-.22,2.43-.67.7-.45,1.25-1.07,1.65-1.87.39-.8.59-1.72.59-2.77s-.2-1.93-.59-2.72c-.4-.79-.94-1.41-1.65-1.86-.7-.45-1.52-.67-2.43-.67s-1.72.22-2.42.67c-.69.45-1.23,1.07-1.62,1.86-.38.79-.58,1.7-.58,2.72s.19,1.97.58,2.77c.38.8.92,1.42,1.62,1.87.69.45,1.5.67,2.42.67Z" style="fill: #fff;"/>
    <path d="m182.69,27.85c-1.58,0-3-.38-4.26-1.15-1.26-.77-2.25-1.81-2.98-3.14-.73-1.32-1.09-2.82-1.09-4.48s.36-3.16,1.09-4.48c.72-1.32,1.72-2.37,2.98-3.14s2.68-1.15,4.26-1.15,2.89.29,4.13.86c1.24.58,2.2,1.38,2.88,2.4l-2.18,2.62c-.32-.45-.73-.85-1.22-1.22-.49-.36-1.01-.65-1.57-.86-.56-.21-1.11-.32-1.66-.32-.94,0-1.78.23-2.51.69-.74.46-1.32,1.09-1.74,1.89-.43.8-.64,1.7-.64,2.7s.22,1.9.66,2.69c.44.79,1.03,1.42,1.78,1.89.75.47,1.58.71,2.5.71.55,0,1.09-.09,1.62-.27.52-.18,1.02-.44,1.49-.78.47-.34.91-.77,1.31-1.28l2.18,2.66c-.73.94-1.72,1.7-2.99,2.29s-2.61.88-4.02.88Z" style="fill: #fff;"/>
    <path d="m192.38,27.53V3.85h3.94v23.68h-3.94Zm3.68-5.15l-.77-3.68,8-8.03h5.25l-12.48,11.71Zm7.71,5.15l-6.21-7.52,2.78-2.37,8.29,9.89h-4.86Z" style="fill: #fff;"/>
    <path d="m218.11,27.85c-1.77,0-3.33-.37-4.69-1.12-1.35-.75-2.41-1.76-3.17-3.06-.76-1.29-1.14-2.77-1.14-4.43,0-1.32.21-2.53.64-3.62s1.02-2.03,1.78-2.83c.76-.8,1.66-1.42,2.72-1.86s2.21-.66,3.47-.66c1.11,0,2.14.21,3.1.64.96.43,1.79,1.01,2.5,1.74.7.74,1.24,1.61,1.62,2.62.37,1.01.55,2.12.53,3.31l-.03,1.38h-13.66l-.74-2.69h11.1l-.51.54v-.7c-.06-.66-.28-1.24-.64-1.74-.36-.5-.83-.9-1.39-1.18-.57-.29-1.19-.43-1.87-.43-1.05,0-1.93.2-2.64.61-.71.41-1.25.99-1.62,1.74s-.54,1.7-.54,2.83.23,2.04.69,2.85c.46.81,1.11,1.44,1.95,1.87.84.44,1.83.66,2.96.66.79,0,1.51-.13,2.18-.38s1.38-.71,2.14-1.38l1.95,2.72c-.58.53-1.23.99-1.97,1.36-.74.37-1.51.67-2.32.88-.81.21-1.61.32-2.4.32Z" style="fill: #fff;"/>
    <path d="m228.64,27.53V10.66h3.87l.06,5.38-.54-1.22c.23-.85.64-1.62,1.22-2.3.58-.68,1.24-1.22,2-1.62.76-.39,1.55-.59,2.38-.59.36,0,.71.03,1.04.1.33.06.6.14.82.22l-1.06,4.32c-.24-.13-.52-.23-.86-.32-.34-.08-.68-.13-1.02-.13-.53,0-1.04.1-1.52.3-.48.2-.9.49-1.26.85-.36.36-.65.79-.85,1.26-.2.48-.3,1.02-.3,1.62v8.99h-3.97Z" style="fill: #fff;"/>
  </g>
  <g>
    <path d="m21.37,1.96l-2.59,2.59,10.86,10.86c1.57,1.57,4.14,1.88,5.87.47,1.98-1.62,2.09-4.55.33-6.31l-7.6-7.6C26.34.06,23.27.06,21.37,1.96Z" style="fill: #9045b5;"/>
    <path d="m29.82,15.58l-11.04-11.04-4.59,4.59c-1.9,1.9-1.9,4.97,0,6.87l7.6,7.6c1.66,1.66,1.66,4.36,0,6.02l3.01-3.01,8.03-8.03,3.01-3.01c-1.66,1.66-4.36,1.66-6.02,0Z" style="fill: #b062d5;"/>
    <path d="m9.33,1.96l-7.18,7.18c-1.9,1.9-1.9,4.97,0,6.87l13.45,13.45c1.57,1.57,4.14,1.88,5.86.47,1.98-1.62,2.09-4.55.33-6.31l-7.6-7.6c-1.9-1.9-1.9-4.97,0-6.87l4.59-4.59-2.59-2.59C14.3.06,11.23.06,9.33,1.96Zm-2.91,12.15c-.7.7-1.84.7-2.54,0-.7-.7-.7-1.84,0-2.54.7-.7,1.84-.7,2.54,0,.7.7.7,1.84,0,2.54Z" style="fill: #d080f5;"/>
  </g>
</svg>