<?xml version="1.0" encoding="UTF-8"?>
<svg id="Layer_1" data-name="Layer 1" xmlns="http://www.w3.org/2000/svg" viewBox="0 0 174.54 23.51">
  <g>
    <path d="m14.87,2.02l-1.79,1.79,7.51,7.51c1.09,1.09,2.86,1.3,4.06.32,1.37-1.12,1.45-3.15.23-4.37l-5.26-5.26c-1.31-1.31-3.44-1.31-4.75,0Z" style="fill: #9045b5;"/>
    <path d="m20.71,11.44l-7.63-7.63-3.18,3.18c-1.31,1.31-1.31,3.44,0,4.75l5.26,5.26c1.15,1.15,1.15,3.01,0,4.16l2.08-2.08,5.55-5.55,2.08-2.08c-1.15,1.15-3.01,1.15-4.16,0Z" style="fill: #b062d5;"/>
    <path d="m6.54,2.02L1.58,6.98c-1.31,1.31-1.31,3.44,0,4.75l9.3,9.3c1.09,1.09,2.86,1.3,4.06.32,1.37-1.12,1.45-3.15.23-4.37l-5.26-5.26c-1.31-1.31-1.31-3.44,0-4.75l3.18-3.18-1.79-1.79c-1.31-1.31-3.44-1.31-4.75,0Zm-2.01,8.4c-.48.48-1.27.48-1.75,0s-.48-1.27,0-1.75,1.27-.48,1.75,0,.48,1.27,0,1.75Z" style="fill: #d080f5;"/>
  </g>
  <g>
    <path d="m56.03,19.95c-.83,0-1.6-.11-2.3-.32-.7-.21-1.33-.53-1.89-.95-.56-.42-1.06-.94-1.5-1.54l1.74-1.97c.67.93,1.33,1.57,1.97,1.93.64.36,1.37.53,2.17.53.46,0,.89-.07,1.27-.22.38-.14.68-.34.9-.59s.33-.54.33-.87c0-.23-.04-.45-.13-.65s-.22-.38-.4-.53-.4-.3-.66-.44c-.26-.14-.55-.25-.88-.35-.33-.09-.69-.18-1.09-.27-.75-.15-1.41-.35-1.97-.6-.56-.25-1.03-.57-1.42-.94-.38-.38-.66-.8-.84-1.27-.18-.47-.27-1.01-.27-1.61s.13-1.16.4-1.66.63-.94,1.1-1.31c.46-.37,1-.66,1.62-.86s1.28-.31,1.99-.31c.81,0,1.53.1,2.16.29.64.19,1.2.48,1.68.85s.89.83,1.2,1.36l-1.76,1.74c-.27-.42-.58-.78-.92-1.06s-.71-.49-1.11-.64c-.4-.14-.81-.21-1.25-.21-.49,0-.92.07-1.28.21s-.65.33-.85.58-.31.56-.31.91c0,.27.06.52.18.73.12.21.3.4.52.56s.52.31.87.43.76.23,1.21.33c.75.15,1.43.35,2.03.61.6.25,1.11.55,1.54.9s.75.75.96,1.19c.22.44.33.94.33,1.49,0,.94-.22,1.75-.67,2.43s-1.07,1.2-1.88,1.56c-.81.36-1.75.54-2.83.54Z" style="fill: #fff;"/>
    <path d="m67.43,19.95c-.78,0-1.46-.17-2.03-.52-.57-.35-1.01-.85-1.31-1.5s-.45-1.42-.45-2.33v-6.67h2.52v6.13c0,.58.09,1.06.27,1.47s.44.71.78.93.75.33,1.23.33c.36,0,.68-.06.97-.17.29-.12.55-.28.77-.49.22-.21.39-.46.51-.76s.18-.61.18-.95v-6.48h2.52v10.81h-2.46l-.04-2.26.45-.25c-.16.52-.44.98-.83,1.38-.39.4-.85.73-1.38.96-.53.24-1.1.36-1.7.36Z" style="fill: #fff;"/>
    <path d="m82.12,19.95c-.48,0-.95-.07-1.41-.22-.46-.14-.87-.34-1.24-.58s-.68-.52-.92-.83-.41-.62-.49-.93l.59-.27-.06,2.58h-2.44V4.56h2.52v6.87l-.45-.21c.07-.33.22-.64.46-.93.24-.29.54-.56.89-.8.36-.24.75-.43,1.17-.57s.85-.21,1.29-.21c.97,0,1.83.24,2.57.72s1.33,1.14,1.76,1.99.65,1.81.65,2.89-.21,2.07-.64,2.91c-.42.85-1.01,1.51-1.75,2-.75.49-1.58.73-2.51.73Zm-.53-2.21c.57,0,1.09-.15,1.54-.44s.81-.7,1.07-1.21.39-1.1.39-1.77-.13-1.24-.38-1.74-.6-.9-1.06-1.19-.97-.43-1.56-.43-1.11.14-1.56.43-.81.68-1.07,1.19-.39,1.09-.39,1.74.13,1.26.39,1.77.62.92,1.07,1.21.97.44,1.56.44Z" style="fill: #fff;"/>
    <path d="m92.68,19.95c-.96,0-1.81-.16-2.57-.48-.76-.32-1.38-.78-1.86-1.38l1.64-1.42c.41.46.87.8,1.37,1,.51.21,1.04.31,1.6.31.23,0,.44-.03.63-.08s.35-.14.48-.25.24-.24.32-.38.11-.3.11-.48c0-.33-.12-.59-.37-.78-.14-.1-.35-.2-.65-.31s-.67-.22-1.14-.33c-.74-.19-1.35-.41-1.85-.67s-.88-.54-1.15-.85c-.23-.26-.41-.55-.52-.88s-.17-.68-.17-1.07c0-.48.11-.91.32-1.3.21-.39.5-.73.87-1.01.37-.29.8-.51,1.29-.66s1-.23,1.54-.23,1.08.07,1.59.21c.51.14.99.33,1.44.58.44.25.82.56,1.14.91l-1.39,1.54c-.26-.25-.54-.46-.85-.66-.31-.19-.62-.34-.93-.46s-.61-.17-.88-.17-.49.02-.7.07c-.21.05-.38.12-.51.22-.14.1-.24.22-.32.36-.08.14-.11.31-.11.5.01.16.06.32.13.46.07.14.18.26.32.36.15.1.38.21.68.33s.69.24,1.17.35c.67.18,1.23.38,1.68.59.45.22.81.47,1.07.76.26.25.44.53.55.86.11.33.16.69.16,1.09,0,.64-.18,1.22-.54,1.72s-.85.9-1.48,1.19c-.62.29-1.32.43-2.1.43Z" style="fill: #fff;"/>
    <path d="m101.21,19.74V7.85h-4.1v-2.46h10.99v2.46h-4.23v11.9h-2.67Z" style="fill: #fff;"/>
    <path d="m108.84,19.74v-10.81h2.48l.04,3.45-.35-.78c.15-.55.41-1.04.78-1.48s.8-.78,1.28-1.04c.49-.25.99-.38,1.53-.38.23,0,.45.02.67.06.21.04.39.09.52.14l-.68,2.77c-.15-.08-.34-.15-.55-.21-.22-.05-.44-.08-.66-.08-.34,0-.67.07-.97.2s-.58.31-.81.54-.41.5-.54.81c-.13.31-.19.65-.19,1.04v5.76h-2.54Z" style="fill: #fff;"/>
    <path d="m120.9,19.95c-.89,0-1.7-.25-2.42-.74-.73-.49-1.31-1.16-1.74-2.01s-.66-1.81-.66-2.89.22-2.04.66-2.89,1.03-1.51,1.78-1.99c.75-.48,1.6-.72,2.54-.72.55,0,1.05.08,1.5.24.45.16.85.38,1.19.67s.63.62.85.98.38.77.46,1.19l-.55-.14v-2.71h2.54v10.81h-2.56v-2.58l.59-.1c-.1.37-.27.73-.52,1.08s-.57.66-.94.92c-.38.27-.79.48-1.25.65-.46.16-.95.25-1.47.25Zm.7-2.24c.59,0,1.11-.14,1.56-.43s.8-.69,1.06-1.2c.25-.51.38-1.1.38-1.77s-.13-1.24-.38-1.74c-.25-.51-.6-.9-1.06-1.19s-.97-.43-1.56-.43-1.1.14-1.55.43-.79.68-1.04,1.19-.37,1.09-.37,1.74.12,1.26.37,1.77.59.91,1.04,1.2.96.43,1.55.43Z" style="fill: #fff;"/>
    <path d="m134.42,19.95c-1.01,0-1.92-.25-2.73-.74-.81-.49-1.44-1.16-1.91-2.01s-.7-1.8-.7-2.87.23-2.02.7-2.87,1.1-1.52,1.91-2.01c.81-.49,1.72-.74,2.73-.74s1.85.18,2.65.55,1.41.88,1.85,1.54l-1.39,1.68c-.21-.29-.46-.55-.78-.78-.31-.23-.65-.42-1-.55-.36-.14-.71-.21-1.07-.21-.6,0-1.14.15-1.61.44s-.84.7-1.12,1.21c-.27.51-.41,1.09-.41,1.73s.14,1.22.42,1.72c.28.51.66.91,1.14,1.21s1.01.45,1.6.45c.36,0,.7-.06,1.04-.17.33-.12.65-.28.95-.5.3-.22.58-.49.84-.82l1.39,1.7c-.46.6-1.1,1.09-1.92,1.47-.81.38-1.67.56-2.57.56Z" style="fill: #fff;"/>
    <path d="m140.63,19.74V4.56h2.52v15.18h-2.52Zm2.36-3.3l-.49-2.36,5.13-5.15h3.36l-8,7.51Zm4.94,3.3l-3.98-4.82,1.78-1.52,5.31,6.34h-3.12Z" style="fill: #fff;"/>
    <path d="m157.12,19.95c-1.13,0-2.14-.24-3-.72-.87-.48-1.55-1.13-2.03-1.96-.49-.83-.73-1.77-.73-2.84,0-.85.14-1.62.41-2.32s.65-1.3,1.14-1.82c.48-.51,1.07-.91,1.74-1.19.68-.28,1.42-.42,2.23-.42.71,0,1.37.14,1.99.41s1.15.65,1.6,1.12.8,1.03,1.04,1.68.35,1.36.34,2.12l-.02.88h-8.76l-.47-1.72h7.12l-.33.35v-.45c-.04-.42-.18-.8-.41-1.12-.23-.32-.53-.57-.89-.76-.36-.18-.76-.28-1.2-.28-.67,0-1.23.13-1.69.39-.46.26-.8.63-1.04,1.12-.23.49-.35,1.09-.35,1.81s.15,1.31.44,1.83c.29.52.71.92,1.25,1.2s1.17.42,1.9.42c.51,0,.97-.08,1.39-.25.42-.16.88-.46,1.37-.88l1.25,1.74c-.37.34-.79.63-1.26.87-.47.24-.97.43-1.49.56-.52.14-1.03.21-1.54.21Z" style="fill: #fff;"/>
    <path d="m163.87,19.74v-10.81h2.48l.04,3.45-.35-.78c.15-.55.41-1.04.78-1.48s.8-.78,1.28-1.04c.49-.25.99-.38,1.53-.38.23,0,.45.02.67.06.21.04.39.09.52.14l-.68,2.77c-.15-.08-.34-.15-.55-.21-.22-.05-.44-.08-.66-.08-.34,0-.67.07-.97.2s-.58.31-.81.54-.41.5-.54.81c-.13.31-.19.65-.19,1.04v5.76h-2.54Z" style="fill: #fff;"/>
  </g>
</svg>