<?xml version="1.0" encoding="UTF-8"?>
<svg id="Layer_1" data-name="Layer 1" xmlns="http://www.w3.org/2000/svg" viewBox="0 0 203.26 114.67">
  <text transform="translate(6.86 111.37)" style="fill: #283a50; font-family: Lexend-Medium, Lexend; font-size: 32px; font-weight: 500;"><tspan x="0" y="0" style="letter-spacing: 0em;">Sub</tspan><tspan x="59.36" y="0" style="letter-spacing: -.05em;">s</tspan><tspan x="73.12" y="0" style="letter-spacing: -.07em;">T</tspan><tspan x="90.21" y="0" style="letter-spacing: -.03em;">r</tspan><tspan x="102.66" y="0" style="letter-spacing: -.01em;">ac</tspan><tspan x="139.81" y="0" style="letter-spacing: -.03em;">k</tspan><tspan x="157.63" y="0" style="letter-spacing: -.01em;">er</tspan></text>
  <path d="m107.04,6.12l-5.32,5.32,22.35,22.35c3.24,3.24,8.52,3.86,12.06.96,4.08-3.33,4.3-9.36.67-12.99l-15.64-15.64c-3.9-3.9-10.22-3.9-14.12,0Z" style="fill: #9045b5;"/>
  <path d="m124.42,34.14l-22.7-22.7-9.45,9.45c-3.9,3.9-3.9,10.22,0,14.12l15.64,15.64c3.42,3.42,3.42,8.96,0,12.38l6.19-6.19,16.51-16.51,6.19-6.19c-3.42,3.42-8.96,3.42-12.38,0Z" style="fill: #b062d5;"/>
  <path d="m82.27,6.12l-14.77,14.77c-3.9,3.9-3.9,10.22,0,14.12l27.67,27.67c3.24,3.24,8.52,3.86,12.06.96,4.08-3.33,4.3-9.36.67-12.99l-15.64-15.64c-3.9-3.9-3.9-10.22,0-14.12l9.45-9.45-5.32-5.32c-3.9-3.9-10.22-3.9-14.12,0Zm-5.98,24.98c-1.44,1.44-3.78,1.44-5.22,0-1.44-1.44-1.44-3.78,0-5.22,1.44-1.44,3.78-1.44,5.22,0,1.44,1.44,1.44,3.78,0,5.22Z" style="fill: #d080f5;"/>
</svg>