<?xml version="1.0" encoding="UTF-8"?>
<svg id="Layer_1" data-name="Layer 1" xmlns="http://www.w3.org/2000/svg" viewBox="0 0 174.54 23.51">
  <g>
    <path d="m14.87,2.02l-1.79,1.79,7.51,7.51c1.09,1.09,2.86,1.3,4.06.32,1.37-1.12,1.45-3.15.23-4.37l-5.26-5.26c-1.31-1.31-3.44-1.31-4.75,0Z" style="fill: #9045b5;"/>
    <path d="m20.71,11.44l-7.63-7.63-3.18,3.18c-1.31,1.31-1.31,3.44,0,4.75l5.26,5.26c1.15,1.15,1.15,3.01,0,4.16l2.08-2.08,5.55-5.55,2.08-2.08c-1.15,1.15-3.01,1.15-4.16,0Z" style="fill: #b062d5;"/>
    <path d="m6.54,2.02L1.58,6.98c-1.31,1.31-1.31,3.44,0,4.75l9.3,9.3c1.09,1.09,2.86,1.3,4.06.32,1.37-1.12,1.45-3.15.23-4.37l-5.26-5.26c-1.31-1.31-1.31-3.44,0-4.75l3.18-3.18-1.79-1.79c-1.31-1.31-3.44-1.31-4.75,0Zm-2.01,8.4c-.48.48-1.27.48-1.75,0s-.48-1.27,0-1.75,1.27-.48,1.75,0,.48,1.27,0,1.75Z" style="fill: #d080f5;"/>
  </g>
  <text transform="translate(49.55 19.74)" style="fill: #fff; font-family: Lexend-Medium, Lexend; font-size: 20.51px; font-weight: 500;"><tspan x="0" y="0" style="letter-spacing: 0em;">Sub</tspan><tspan x="38.05" y="0" style="letter-spacing: -.05em;">s</tspan><tspan x="46.87" y="0" style="letter-spacing: -.07em;">T</tspan><tspan x="57.82" y="0" style="letter-spacing: -.03em;">r</tspan><tspan x="65.8" y="0" style="letter-spacing: -.01em;">ac</tspan><tspan x="89.61" y="0" style="letter-spacing: -.03em;">k</tspan><tspan x="101.03" y="0" style="letter-spacing: -.01em;">er</tspan></text>
</svg>