<svg width="32" height="32" viewBox="0 0 32 32" fill="none" xmlns="http://www.w3.org/2000/svg">
<circle cx="16" cy="16" r="16" fill="#F1F5F8"/>
<path d="M23.722 8H9.54964C8.20327 8 7.11377 9.0895 7.11377 10.4359V21.0651C7.11377 22.4115 8.20327 23.501 9.54964 23.501H21.0647C22.411 23.501 23.5005 22.4115 23.5005 21.0651V13.979C23.5005 12.6326 22.411 11.5431 21.0647 11.5431H9.54964C8.93846 11.5431 8.44243 11.0471 8.44243 10.4359C8.44243 9.82469 8.93846 9.32866 9.54964 9.32866H23.722C24.0852 9.32866 24.3863 9.02749 24.3863 8.66433C24.3863 8.30116 24.0852 8 23.722 8ZM20.1878 16.8577H20.1966C20.5598 16.8577 20.8609 17.1589 20.8609 17.522C20.8609 17.8852 20.5598 18.1864 20.1966 18.1864C19.8334 18.1864 19.5323 17.8852 19.5323 17.522C19.5323 17.1589 19.8246 16.8577 20.1878 16.8577Z" fill="#718CAF"/>
</svg>
