<svg width="32" height="32" viewBox="0 0 32 32" fill="none" xmlns="http://www.w3.org/2000/svg">
<circle cx="16" cy="16" r="16" fill="#FFF6EF"/>
<path d="M24.2108 12.0425L16.8908 8.2025C16.3808 7.9325 15.7708 7.9325 15.2608 8.2025L7.94081 12.0425C7.33081 12.3625 6.98081 12.9825 7.00081 13.6625C7.03081 14.3425 7.44081 14.9325 8.07081 15.2025L15.3908 18.2725C15.6008 18.3625 15.8408 18.4025 16.0708 18.4025C16.3008 18.4025 16.5308 18.3625 16.7508 18.2625L24.0708 15.1925C24.7008 14.9225 25.1108 14.3425 25.1408 13.6525C25.1708 12.9725 24.8108 12.3425 24.2008 12.0325L24.2108 12.0425Z" fill="#E1A252"/>
<path d="M16.0808 19.9123C15.6508 19.9123 15.2208 19.8323 14.8208 19.6623L9.33081 17.3623V19.6323C9.33081 20.6123 9.85081 21.5223 10.7008 22.0123C11.8508 22.6723 13.7208 23.4623 16.0808 23.4623C17.1608 23.4623 19.3008 23.2723 21.4908 22.0023C22.3108 21.5223 22.8308 20.6223 22.8308 19.6423V17.3723L17.3408 19.6723C16.9408 19.8423 16.5208 19.9223 16.0808 19.9223V19.9123Z" fill="#E1A252"/>
</svg>
