<svg width="32" height="32" viewBox="0 0 32 32" fill="none" xmlns="http://www.w3.org/2000/svg">
<circle cx="16" cy="16" r="16" fill="#FCF3F6"/>
<path d="M17.75 10H17.5V9.75C17.5 8.23 16.27 7 14.75 7H13.75C13.06 7 12.5 6.44 12.5 5.75C12.5 5.34 12.16 5 11.75 5C11.34 5 11 5.34 11 5.75C11 7.27 12.23 8.5 13.75 8.5H14.75C15.44 8.5 16 9.06 16 9.75V10H15.75C13.13 10 11 12.13 11 14.75V19.75C11 22.37 13.13 24.5 15.75 24.5H17.75C20.37 24.5 22.5 22.37 22.5 19.75V14.75C22.5 12.13 20.37 10 17.75 10ZM17.5 15.75C17.5 16.16 17.16 16.5 16.75 16.5C16.34 16.5 16 16.16 16 15.75V13.75C16 13.34 16.34 13 16.75 13C17.16 13 17.5 13.34 17.5 13.75V15.75Z" fill="#EC7CBD"/>
</svg>
