<svg width="32" height="32" viewBox="0 0 32 32" fill="none" xmlns="http://www.w3.org/2000/svg">
<circle cx="16" cy="16" r="16" fill="#F4FBF0"/>
<path d="M24.7436 11.0134C24.0117 10.4649 23.2616 10.2912 22.7309 10.2455L23.5177 9.45933C23.783 9.19423 23.783 8.75543 23.5177 8.49033C23.2524 8.22522 22.8133 8.22522 22.548 8.49033L21.7429 9.29478C21.6606 8.33492 21.258 7.62188 20.9927 7.2745C20.764 6.97282 20.3341 6.90883 20.0322 7.13737C19.7303 7.36591 19.6662 7.79557 19.8949 8.09724C20.0871 8.3532 20.4072 8.88341 20.4072 9.62388C20.4072 9.81585 20.3707 10.1267 20.2517 10.474C19.4284 9.81585 18.3671 9.47761 17.2144 9.51418C16.4277 9.55075 15.6409 9.761 14.9182 10.1175L15.4671 10.794L17.0498 12.3755C17.3151 12.6406 17.3151 13.0794 17.0498 13.3445C16.9126 13.4816 16.7387 13.5456 16.5649 13.5456C16.3911 13.5456 16.2173 13.4816 16.08 13.3445L14.4516 11.7173L13.7472 10.858C13.3813 11.1505 13.0336 11.4796 12.7134 11.8636C12.1188 12.5766 11.5607 13.3171 11.0301 14.0758L11.8809 14.9717L13.8112 16.9006C14.0765 17.1657 14.0765 17.6045 13.8112 17.8696C13.674 18.0067 13.5002 18.0707 13.3264 18.0707C13.1526 18.0707 12.9787 18.0067 12.8415 17.8696L10.902 15.9316L10.2525 15.2551C8.98088 17.2845 7.93796 19.4602 7.16034 21.7456C6.831 22.7237 7.01397 23.6928 7.66351 24.3327C8.10263 24.7715 8.67898 25 9.31937 25C9.62127 25 9.94146 24.9452 10.2617 24.8355C11.332 24.4698 12.3658 24.0493 13.3813 23.5739L11.5516 21.7456C11.2863 21.4805 11.2863 21.0417 11.5516 20.7766C11.8169 20.5115 12.256 20.5115 12.5213 20.7766L14.6803 22.934C16.199 22.1387 17.6536 21.2245 19.035 20.1733L16.7204 17.8696C16.4551 17.6045 16.4551 17.1657 16.7204 16.9006C16.9857 16.6355 17.4249 16.6355 17.6902 16.9006L20.1145 19.3139C20.1145 19.3139 20.1694 19.2774 20.1877 19.25C21.5691 18.089 22.4107 16.4709 22.4839 14.798C22.5388 13.637 22.182 12.5857 21.5234 11.763C21.7612 11.6807 22.0448 11.6076 22.3742 11.6076C22.7035 11.6076 23.3164 11.6716 23.9019 12.1195C24.0209 12.2109 24.1672 12.2567 24.3136 12.2567C24.524 12.2567 24.7253 12.1652 24.8625 11.9824C25.0912 11.6807 25.0272 11.2511 24.7253 11.0225L24.7436 11.0134Z" fill="#8ED041"/>
</svg>
