<svg width="32" height="32" viewBox="0 0 32 32" fill="none" xmlns="http://www.w3.org/2000/svg">
<circle cx="16" cy="16" r="16" fill="#FBEEEE"/>
<path d="M24.9901 11.27C24.1201 9.25 22.2001 8 19.9801 8C18.5301 8 17.1601 8.56 16.1301 9.58L15.7201 9.98L15.3101 9.58C14.2801 8.56 12.9101 8 11.4601 8C9.24006 8 7.32006 9.25 6.45006 11.27C5.59006 13.26 5.98006 15.48 7.47006 17.06L15.1701 25.26C15.3101 25.41 15.5101 25.5 15.7201 25.5C15.9301 25.5 16.1201 25.41 16.2701 25.26L23.9701 17.06C25.4601 15.48 25.8501 13.25 24.9901 11.27ZM19.7501 16.5H18.2101L17.4201 18.09C17.2901 18.34 17.0301 18.5 16.7501 18.5C16.4701 18.5 16.2101 18.34 16.0801 18.09L14.7501 15.43L14.4201 16.09C14.2901 16.34 14.0301 16.5 13.7501 16.5H11.7501C11.3401 16.5 11.0001 16.16 11.0001 15.75C11.0001 15.34 11.3401 15 11.7501 15H13.2901L14.0801 13.41C14.3301 12.9 15.1701 12.9 15.4201 13.41L16.7501 16.07L17.0801 15.41C17.2101 15.16 17.4701 15 17.7501 15H19.7501C20.1601 15 20.5001 15.34 20.5001 15.75C20.5001 16.16 20.1601 16.5 19.7501 16.5Z" fill="#E2553A"/>
</svg>
