<svg width="32" height="32" viewBox="0 0 32 32" fill="none" xmlns="http://www.w3.org/2000/svg">
<circle cx="16" cy="16" r="16" fill="#FDFAE5"/>
<path d="M22.32 9.52C21.62 9.03 20.88 8.56 20.13 8.11C18.81 7.34 17.44 6.65 16.04 6.06C15.86 5.98 15.65 5.98 15.46 6.06C14.06 6.64 12.68 7.33 11.37 8.11C10.62 8.56 9.88 9.03 9.18 9.52C8.44 10.04 8 10.88 8 11.78V16.16C8 18.23 8.63 20.21 9.77 21.73C9.9 21.9 10.03 22.07 10.18 22.24C12.04 24.4 14.36 25.2 15.58 25.48C15.64 25.49 15.69 25.5 15.75 25.5C15.81 25.5 15.86 25.5 15.92 25.48C17.14 25.2 19.46 24.4 21.32 22.24C21.47 22.07 21.6 21.9 21.73 21.73C22.87 20.2 23.5 18.23 23.5 16.16V11.78C23.5 10.88 23.06 10.04 22.32 9.52ZM15.25 15.01H16.25C17.49 15.01 18.5 16.02 18.5 17.26C18.5 18.41 17.62 19.36 16.5 19.48V19.76C16.5 20.17 16.16 20.51 15.75 20.51C15.34 20.51 15 20.17 15 19.76V19.51H13.75C13.34 19.51 13 19.17 13 18.76C13 18.35 13.34 18.01 13.75 18.01H16.25C16.66 18.01 17 17.67 17 17.26C17 16.85 16.66 16.51 16.25 16.51H15.25C14.01 16.51 13 15.5 13 14.26C13 13.11 13.88 12.16 15 12.04V11.76C15 11.35 15.34 11.01 15.75 11.01C16.16 11.01 16.5 11.35 16.5 11.76V12.01H17.75C18.16 12.01 18.5 12.35 18.5 12.76C18.5 13.17 18.16 13.51 17.75 13.51H15.25C14.84 13.51 14.5 13.85 14.5 14.26C14.5 14.67 14.84 15.01 15.25 15.01Z" fill="#F0D31B"/>
</svg>
