<svg width="32" height="32" viewBox="0 0 32 32" fill="none" xmlns="http://www.w3.org/2000/svg">
<circle cx="16" cy="16" r="16" fill="#FBF3FC"/>
<path d="M16.8079 22.1314C19.1179 22.1314 21.4279 21.2314 23.1479 19.4414C23.4379 19.1414 23.4279 18.6714 23.1279 18.3814C22.8279 18.0914 22.3579 18.1014 22.0679 18.4014C19.2779 21.3014 14.6479 21.3914 11.7379 18.6014C8.83792 15.8114 8.74792 11.1714 11.5379 8.27139C11.8279 7.97139 11.8179 7.50139 11.5179 7.21139C11.2179 6.92139 10.7479 6.93139 10.4579 7.23139C7.08792 10.7314 7.19792 16.3114 10.6979 19.6814C11.9379 20.8714 13.4279 21.6214 14.9979 21.9514V23.8714H13.7479C13.3379 23.8714 12.9979 24.2114 12.9979 24.6214C12.9979 25.0314 13.3379 25.3714 13.7479 25.3714H17.7479C18.1579 25.3714 18.4979 25.0314 18.4979 24.6214C18.4979 24.2114 18.1579 23.8714 17.7479 23.8714H16.4979V22.1314C16.5979 22.1314 16.6979 22.1414 16.7979 22.1414L16.8079 22.1314Z" fill="#C87CEC"/>
<path d="M18.028 11.171C18.048 11.271 18.098 11.461 18.298 11.591C18.858 11.941 19.218 12.551 19.268 13.201C19.288 13.441 19.428 13.581 19.508 13.641C19.588 13.701 19.768 13.801 19.998 13.741L21.558 13.391L22.458 13.231C22.398 12.331 22.148 11.451 21.678 10.651C21.218 9.88102 20.578 9.26102 19.838 8.79102L18.158 10.691C17.998 10.871 18.008 11.071 18.018 11.171H18.028Z" fill="#C87CEC"/>
<path d="M11.578 16.0515L11.908 15.6815L13.138 14.2515C13.488 13.8515 13.998 13.6315 14.538 13.6815C15.068 13.7215 15.548 14.0215 15.818 14.4815L16.428 15.5015C16.748 16.0415 16.748 16.7115 16.408 17.2415L15.508 18.6615L15.258 19.1715C15.258 19.1715 15.328 19.2015 15.368 19.2115C15.838 19.3315 16.308 19.3815 16.768 19.3815C17.798 19.3815 18.808 19.1015 19.718 18.5615C21.038 17.7715 21.968 16.5115 22.338 15.0215C22.358 14.9415 22.358 14.8615 22.368 14.7915L21.858 14.8815L20.328 15.2215C20.178 15.2515 20.028 15.2715 19.868 15.2715C19.418 15.2715 18.978 15.1315 18.618 14.8615C18.128 14.5015 17.818 13.9415 17.768 13.3315C17.758 13.1415 17.648 12.9715 17.488 12.8715C16.968 12.5415 16.628 12.0115 16.538 11.4015C16.448 10.7915 16.628 10.1915 17.018 9.72146L18.058 8.50146L18.388 8.13146C18.298 8.10146 18.218 8.06146 18.138 8.04146C16.648 7.67146 15.098 7.90146 13.788 8.69146C12.478 9.48146 11.538 10.7415 11.168 12.2315C10.838 13.5315 11.008 14.8615 11.568 16.0615L11.578 16.0515Z" fill="#C87CEC"/>
<path d="M14.408 15.1719C14.408 15.1719 14.318 15.1719 14.278 15.2219L13.038 16.6719L12.408 17.3619C12.828 17.8419 13.318 18.2419 13.868 18.5619L14.188 17.9119L15.128 16.4219C15.128 16.4219 15.158 16.3119 15.128 16.2619L14.518 15.2419C14.488 15.1819 14.438 15.1719 14.398 15.1719H14.408Z" fill="#C87CEC"/>
</svg>
