<svg width="32" height="32" viewBox="0 0 32 32" fill="none" xmlns="http://www.w3.org/2000/svg">
<circle cx="16" cy="16" r="16" fill="#F0F9F6"/>
<path d="M21.4252 7.47461H10.0765C8.11885 7.47461 6.53003 9.06343 6.53003 11.0211V17.6411C6.53003 19.5988 8.11885 21.1876 10.0765 21.1876H13.1785C13.1785 21.1876 13.1785 21.2444 13.1785 21.2727C13.0555 21.8402 12.8096 22.2847 12.5827 22.6062H11.9869C11.5991 22.6062 11.2776 22.9277 11.2776 23.3155C11.2776 23.7032 11.5991 24.0248 11.9869 24.0248H19.5527C19.9404 24.0248 20.2619 23.7032 20.2619 23.3155C20.2619 22.9277 19.9404 22.6062 19.5527 22.6062H18.9568C18.7299 22.2847 18.484 21.8402 18.3516 21.2727C18.3516 21.2444 18.3516 21.216 18.3516 21.1876H21.4536C23.4112 21.1876 25 19.5988 25 17.6411V11.0211C25 9.06343 23.4112 7.47461 21.4536 7.47461H21.4252ZM18.588 18.3504H12.9137C12.5259 18.3504 12.2044 18.0289 12.2044 17.6411C12.2044 17.2534 12.5259 16.9319 12.9137 16.9319H18.588C18.9758 16.9319 19.2973 17.2534 19.2973 17.6411C19.2973 18.0289 18.9758 18.3504 18.588 18.3504Z" fill="#58B7B1"/>
</svg>
