<svg width="32" height="32" viewBox="0 0 32 32" fill="none" xmlns="http://www.w3.org/2000/svg">
<circle cx="16" cy="16" r="16" fill="#F7F3F0"/>
<path d="M25.2699 13.49C23.3099 10.1 19.6599 8 15.7499 8C11.8399 8 8.18994 10.1 6.21994 13.49C5.82994 14.16 5.96994 15.05 6.54994 15.59L14.5599 23.04C14.8899 23.35 15.3099 23.5 15.7299 23.5C16.1499 23.5 16.5699 23.35 16.8999 23.04L24.9199 15.59C25.4999 15.05 25.6499 14.16 25.2499 13.49H25.2699ZM19.2599 18.81C19.1199 18.94 18.9299 19.01 18.7499 19.01C18.5499 19.01 18.3499 18.93 18.1999 18.77C16.9199 17.39 14.5799 17.39 13.2999 18.77C13.0199 19.07 12.5399 19.09 12.2399 18.81C11.9399 18.53 11.9199 18.05 12.1999 17.75C13.1099 16.77 14.4099 16.21 15.7399 16.21C17.0699 16.21 18.3799 16.77 19.2899 17.76C19.5699 18.06 19.5599 18.54 19.2499 18.82L19.2599 18.81ZM22.1999 16.4C22.0599 16.5 21.9099 16.55 21.7499 16.55C21.5199 16.55 21.2999 16.45 21.1499 16.25C19.8999 14.59 17.8799 13.6 15.7499 13.6C13.6199 13.6 11.6399 14.57 10.3899 16.21C10.1399 16.54 9.66994 16.6 9.33994 16.35C9.00994 16.1 8.94994 15.63 9.19994 15.3C10.7399 13.3 13.1899 12.11 15.7499 12.11C18.3099 12.11 20.8099 13.32 22.3499 15.36C22.5999 15.69 22.5299 16.16 22.1999 16.41V16.4Z" fill="#9C7B76"/>
</svg>
