<svg width="32" height="32" viewBox="0 0 32 32" fill="none" xmlns="http://www.w3.org/2000/svg">
<circle cx="16" cy="16" r="16" fill="#EFF2FB"/>
<path d="M23.95 10.73C23.53 9.68 22.53 9 21.4 9H18.5V14H25.26L23.95 10.73Z" fill="#697DB8"/>
<path d="M11 9H8.75C7.23 9 6 10.23 6 11.75V14H11V9Z" fill="#697DB8"/>
<path d="M17 9H12.5V14H17V9Z" fill="#697DB8"/>
<path d="M20.75 15.5C23.09 15.5 25 17.41 25 19.75C25 19.83 24.98 19.91 24.98 20C25.3 19.68 25.5 19.24 25.5 18.75V15.5H20.75Z" fill="#697DB8"/>
<path d="M6 18.75C6 19.24 6.2 19.68 6.52 20C6.52 19.92 6.5 19.84 6.5 19.75C6.5 17.41 8.41 15.5 10.75 15.5H6V18.75Z" fill="#697DB8"/>
<path d="M15 19.75C15 20.01 14.97 20.26 14.92 20.5H16.57C16.53 20.26 16.49 20.01 16.49 19.75C16.49 17.41 18.4 15.5 20.74 15.5H10.75C13.09 15.5 15 17.41 15 19.75Z" fill="#697DB8"/>
<path d="M10.75 22.5C12.2688 22.5 13.5 21.2688 13.5 19.75C13.5 18.2312 12.2688 17 10.75 17C9.23122 17 8 18.2312 8 19.75C8 21.2688 9.23122 22.5 10.75 22.5Z" fill="#697DB8"/>
<path d="M20.75 22.5C22.2688 22.5 23.5 21.2688 23.5 19.75C23.5 18.2312 22.2688 17 20.75 17C19.2312 17 18 18.2312 18 19.75C18 21.2688 19.2312 22.5 20.75 22.5Z" fill="#697DB8"/>
</svg>
