<svg width="32" height="32" viewBox="0 0 32 32" fill="none" xmlns="http://www.w3.org/2000/svg">
<circle cx="16" cy="16" r="16" fill="#F0F7FD"/>
<path d="M24.86 12.96L16.12 8.1C15.89 7.97 15.62 7.97 15.39 8.1L12.5 9.7V8.25C12.5 7.56 11.94 7 11.25 7H9.25C8.56 7 8 7.56 8 8.25V12.2L6.64 12.95C6.24 13.17 6 13.59 6 14.04V15.9C6 16.35 6.23 16.75 6.62 16.98C7.01 17.21 7.47 17.21 7.86 17L15.75 12.61L23.64 17C23.83 17.11 24.04 17.16 24.25 17.16C24.47 17.16 24.69 17.1 24.88 16.99C25.27 16.76 25.5 16.36 25.5 15.91V14.05C25.5 13.6 25.25 13.18 24.86 12.96Z" fill="#57ADE4"/>
<path d="M15.75 14.3301L8.59 18.3101C8.4 18.4101 8.21 18.4901 8 18.5401V23.7501C8 24.7101 8.79 25.5001 9.75 25.5001H12.75C13.71 25.5001 14.5 24.7101 14.5 23.7501V20.7501C14.5 20.0601 15.06 19.5001 15.75 19.5001C16.44 19.5001 17 20.0601 17 20.7501V23.7501C17 24.7101 17.79 25.5001 18.75 25.5001H21.75C22.71 25.5001 23.5 24.7101 23.5 23.7501V18.5401C23.3 18.4801 23.1 18.4101 22.92 18.3101L15.75 14.3301Z" fill="#57ADE4"/>
</svg>
